<svg width="712" height="694" viewBox="0 0 712 694" fill="none" xmlns="http://www.w3.org/2000/svg">
<path d="M704.35 142.58H704.34C687.35 134.75 668.62 127.69 648.92 121.43C603.7 99 599.12 85.08 611.35 79.36C625.58 72.7 651.37 64.59 683.45 89.36C705.75 106.57 712.05 140.4 704.35 142.58Z" fill="#2D2620" stroke="#231F20" stroke-width="0.88" stroke-miterlimit="10"/>
<path d="M711.081 141.94C710.141 142.8 708.561 143.31 706.451 143.57C705.751 143.24 705.051 142.91 704.351 142.58C712.051 140.4 705.751 106.57 683.451 89.36C651.371 64.59 625.581 72.7 611.351 79.36C599.121 85.08 603.701 99 648.921 121.43C546.711 88.99 418.411 78.3 372.711 93.9C373.931 89.38 382.361 71.34 380.661 55.78C379.421 44.37 374.441 23.04 370.391 12.49C370.441 12.46 370.501 12.42 370.551 12.39C387.141 2.62999 438.231 -9.82003 541.341 17.68C644.451 45.18 708.961 81.66 711.081 141.94Z" fill="#FF9F36"/>
<path d="M372.71 93.9C371.79 94.21 370.91 94.53 370.06 94.87C370.06 92.63 370.26 90.66 370.55 89.06C372.67 77.43 379.01 70.03 374.78 47.82C372.96 38.28 370.79 31.07 369.39 25.66C367.75 19.3 367.17 15.43 369.49 13.19C369.75 12.94 370.05 12.7 370.39 12.49C374.44 23.04 379.42 44.37 380.66 55.78C382.36 71.34 373.93 89.38 372.71 93.9Z" fill="#2D2620" stroke="#231F20" stroke-width="0.88" stroke-miterlimit="10"/>
<path d="M444.851 143.44C436.331 142.77 428.731 141.93 422.371 140.88C406.221 138.22 394.891 133.24 387.021 127.31C373.311 117.01 370.071 103.82 370.061 94.8699C370.911 94.5299 371.79 94.2099 372.71 93.8999C371.49 98.4199 376.451 101.52 389.321 103.74C402.201 105.96 418.631 113.96 421.301 121.79C423.961 129.63 426.181 136.59 444.851 143.44Z" fill="#2D2620" stroke="#231F20" stroke-width="0.88" stroke-miterlimit="10"/>
<path d="M706.45 143.57C695.53 144.94 670.07 139.73 641.28 141.94C611.17 144.25 505.19 148.19 444.89 143.45H444.88C444.88 143.45 444.86 143.44 444.85 143.44C426.18 136.59 423.96 129.63 421.3 121.79C418.63 113.96 402.2 105.96 389.32 103.74C376.45 101.52 371.49 98.4199 372.71 93.8999C418.41 78.2999 546.71 88.9899 648.92 121.43C668.62 127.69 687.35 134.75 704.34 142.58H704.35C705.05 142.91 705.75 143.24 706.45 143.57Z" fill="#F44B34"/>
<path d="M391.621 261.67C390.031 269.55 383.85 280.72 374.47 293.69C337.62 344.67 251.3 423.49 199.5 440.1C191.91 442.54 185.06 443.64 179.22 443.11C177.51 439.66 174.4 437.23 172.7 437.23C171.12 437.23 168.5 437.28 166.4 440.36C146.65 434.22 137.06 421.53 132.7 407.22C130.38 399.58 129.54 391.5 129.44 383.7C130.22 383.28 131.021 382.87 131.841 382.46C176.251 360.26 251.75 268.77 264.18 234.14C276.61 199.51 227.151 178.34 165.301 237.74C188.501 210.96 213.351 188.96 227.771 178.77C252.041 161.6 233.691 153.31 249.081 102.39C264.481 51.47 321.62 13.1899 341.75 13.1899H369.5C367.18 15.4299 367.76 19.2999 369.4 25.6599C338.34 28.7699 321.19 43.42 309.21 61.95C304.16 69.74 300.02 78.2299 296.15 86.8299C282.83 116.45 235.951 176.4 288.26 223.48C327.43 258.73 374.12 246.91 393.42 221.97C394.52 234.76 394.31 248.4 391.63 261.67H391.621Z" fill="#2D2620" stroke="#231F20" stroke-width="0.88" stroke-miterlimit="10"/>
<path d="M264.17 234.14C251.74 268.77 176.24 360.26 131.83 382.46C131.01 382.87 130.21 383.28 129.43 383.7C121.85 387.7 116.19 391.78 111.95 395.72C97.0698 409.58 99.5497 421.9 97.1397 424.45H97.1297C96.4797 425.14 95.4597 425.11 93.6397 424.2C82.9797 418.87 98.0799 347.82 123.84 297.2C134.3 276.64 149.39 256.08 165.26 237.77C165.26 237.77 165.27 237.77 165.28 237.75H165.29C210.27 194.54 248.7 193.96 261.53 210.17C261.54 210.17 261.54 210.18 261.54 210.19C261.62 210.28 261.7 210.37 261.76 210.47C263.32 212.5 264.47 214.78 265.19 217.28C266.64 222.22 266.39 227.96 264.17 234.14Z" fill="#2D2620" stroke="#231F20" stroke-width="0.88" stroke-miterlimit="10"/>
<path d="M393.41 221.97C374.11 246.91 327.421 258.73 288.251 223.48C235.941 176.4 282.82 116.45 296.14 86.8299C300.01 78.2299 304.15 69.74 309.2 61.95C339.69 88.16 370.551 89.0599 370.551 89.0599C370.261 90.6599 370.061 92.6299 370.061 94.8699C370.071 103.82 373.311 117.01 387.021 127.31C383.761 150.13 375.631 154.75 378.741 161.75C381.221 167.33 390.85 192.39 393.41 221.97Z" fill="#EAE1DA"/>
<path d="M374.47 293.69C367.87 316.11 345.711 345.38 319.601 372.61C296.881 396.3 271.171 418.46 250.101 433.21C249.941 433.33 249.781 433.44 249.621 433.55C238.151 441.55 228.08 447.34 220.65 449.96C203.5 456.02 190.321 457.88 180.841 458.02C180.381 458.03 179.94 458.03 179.49 458.03C179.95 453.85 180.54 449.94 180.44 447.59C180.37 446 179.91 444.48 179.23 443.11C185.07 443.64 191.92 442.54 199.51 440.1C233.93 429.06 283.591 390.56 323.851 350.99C344.181 331.04 362.12 310.8 374.48 293.69H374.47Z" fill="#2D2620" stroke="#231F20" stroke-width="0.88" stroke-miterlimit="10"/>
<path d="M162.031 478.38C159.181 479.45 154.62 487.57 152.92 490.75L101.271 492.07C110.031 465.46 113.13 429.27 111.95 395.72C116.19 391.78 121.85 387.7 129.43 383.7C129.53 391.5 130.37 399.58 132.69 407.21C135.03 432.65 154.25 453.02 165.44 458.64C165.94 460.91 166.37 463.26 166.47 465.5C166.75 472 165.581 477.05 162.031 478.38Z" fill="#141311"/>
<path d="M179.39 540.31C175.1 587.79 158.84 667.16 151.37 679.11C142.49 693.32 72.6201 702.2 47.1601 679.11C28.3901 662.08 59.8401 587.43 82.1601 537.04L166.98 534.87C167.24 540.03 169.16 543.82 174.02 544.11C176.87 544.28 178.49 542.54 179.39 540.31Z" fill="#141311"/>
<path d="M180.83 458.02C180.35 458.23 179.87 458.42 179.41 458.6" stroke="#231F20" stroke-width="0.88" stroke-miterlimit="10"/>
<path d="M323.57 538.67C323.51 538.62 323.44 538.57 323.38 538.51" stroke="#231F20" stroke-width="0.88" stroke-miterlimit="10"/>
<path d="M311.93 531.16H311.94C312.01 531.19 312.07 531.21 312.14 531.23" stroke="#231F20" stroke-width="0.88" stroke-miterlimit="10"/>
<path d="M292.89 435.75C293.17 438.4 292.79 441.97 291.82 445.86C288.22 444.17 284.84 443.13 281.93 443.24C271.41 443.65 269.06 445.08 272.16 449.52C276.76 456.1 280.6 460.49 283.8 463.48C279.31 469.68 273.33 474.14 266.24 473.65C253.3 472.75 247.76 449.35 249.62 433.55C270.78 418.79 296.71 396.48 319.6 372.61C301.43 416.33 291.84 425.81 292.89 435.75Z" fill="#1E1915" stroke="#231F20" stroke-width="0.88" stroke-miterlimit="10"/>
<path d="M344.11 519.24C343.53 523.07 342.54 526.99 341.11 530.42C339.21 534.93 336.53 538.6 333 540.11C331.81 540.62 330.6 540.82 329.44 540.78C329.92 540.12 330.37 539.38 330.78 538.56C333.5 533.17 326.07 529.94 324.79 535.45C324.5 536.67 324.01 537.68 323.38 538.51C321.79 537.17 320.65 535.41 321.01 534.34C321.51 532.85 316.58 532.75 312.14 531.23C312.18 531.21 312.22 531.18 312.26 531.15C313.59 530.31 314.55 529.3 314.95 528.12C316.32 526.19 311.17 517.64 308.18 522.79C307.52 524.06 306.71 525.11 305.82 525.99C305.6 525.3 305.47 524.53 305.47 523.68C305.47 513.91 314.35 510.8 315.24 502.36C316.11 494.14 307.61 488.96 300.67 486.97L292.22 487.19C293.8 480.65 302.34 479.17 299.7 473.68C297.37 468.83 293.4 472.44 283.8 463.48C280.6 460.49 276.76 456.1 272.16 449.52C269.06 445.08 271.41 443.65 281.93 443.24C284.84 443.13 288.22 444.17 291.82 445.86C301.24 450.27 312.22 459.11 320.57 463.28C331.44 468.72 340.73 474.15 343.64 485.87C343.82 486.6 343.98 487.36 344.11 488.15C346.33 501.47 345.44 510.36 344.11 519.24Z" fill="#5E5853"/>
<path d="M329.19 540.78H329.44" stroke="#231F20" stroke-width="0.88" stroke-miterlimit="10"/>
<path d="M300.671 486.97C300.491 486.92 300.321 486.87 300.141 486.82" stroke="#231F20" stroke-width="0.88" stroke-miterlimit="10"/>
<path d="M330.78 538.56C330.37 539.38 329.92 540.12 329.44 540.78C324.31 547.89 315.83 546.58 315.02 544.55C314.28 542.71 320.34 542.61 323.38 538.51C324.01 537.68 324.5 536.67 324.79 535.45C326.07 529.94 333.5 533.17 330.78 538.56Z" fill="#2D2620" stroke="#231F20" stroke-width="0.88" stroke-miterlimit="10"/>
<path d="M314.95 528.12C314.55 529.3 313.59 530.31 312.26 531.15C312.22 531.18 312.18 531.21 312.14 531.23C306.22 534.93 293.53 535.63 292.81 535.45C291.93 535.23 291.48 533.25 292.81 531.8C292.86 531.75 292.92 531.7 292.99 531.65H293C294.57 530.57 301.3 530.48 305.82 525.99C306.71 525.11 307.52 524.06 308.18 522.79C311.17 517.64 316.32 526.19 314.95 528.12Z" fill="#2D2620" stroke="#231F20" stroke-width="0.88" stroke-miterlimit="10"/>
<path d="M165.44 458.64C154.25 453.02 135.03 432.65 132.69 407.22C137.05 421.53 146.64 434.22 166.39 440.36C165.33 441.89 164.411 444.18 163.811 447.59C163.331 450.27 164.5 454.33 165.44 458.64Z" fill="#2D2620" stroke="#231F20" stroke-width="0.88" stroke-miterlimit="10"/>
<path d="M193.98 534.18C193.65 534.78 193.26 535.22 192.82 535.47C192.53 535.64 192.22 535.77 191.89 535.86C189.67 536.47 186.72 535.35 184.37 534.12C182.13 532.95 180.43 531.67 180.43 531.67C180.43 531.67 180.54 532.87 180.47 534.53C180.4 536.24 180.14 538.45 179.39 540.31C178.49 542.54 176.87 544.28 174.02 544.11C169.16 543.82 167.24 540.03 166.98 534.87C166.82 532.03 167.17 528.77 167.8 525.46C169.58 516.13 170.47 494.55 166.03 492.02C161.59 489.48 152.26 492.02 152.26 492.02C152.26 492.02 152.5 491.54 152.92 490.75C154.62 487.57 159.18 479.45 162.03 478.38C165.58 477.05 166.75 472 166.47 465.5C166.37 463.26 165.94 460.91 165.44 458.64C164.5 454.33 163.33 450.27 163.81 447.59C164.41 444.18 165.33 441.89 166.39 440.36C168.49 437.28 171.11 437.23 172.69 437.23C174.39 437.23 177.5 439.66 179.21 443.11C179.89 444.48 180.35 446 180.42 447.59C180.52 449.94 179.93 453.85 179.47 458.03C179.44 458.22 179.42 458.41 179.4 458.6C178.78 464.29 178.45 470.37 180.42 473.68C183.42 478.71 187.53 478.8 191.06 489.78C191.66 491.66 192.25 493.85 192.81 496.44C196.25 512.34 196.86 529.1 193.97 534.18H193.98Z" fill="#5E5853"/>
<path d="M191.89 535.86C190.24 541.35 186.47 540.98 185.42 540.8C184.52 540.64 184.38 538.97 184.37 534.43V534.12C186.72 535.35 189.67 536.47 191.89 535.86Z" fill="#2D2620" stroke="#231F20" stroke-width="0.88" stroke-miterlimit="10"/>
<path d="M372.081 25.4199C371.171 25.4899 370.281 25.5699 369.391 25.6599" stroke="#231F20" stroke-width="0.88" stroke-miterlimit="10"/>
<path d="M374.78 47.8199C372.96 38.2799 370.79 31.0699 369.39 25.6599C338.33 28.7699 321.18 43.4199 309.2 61.9499C339.69 88.1599 370.55 89.0599 370.55 89.0599C372.67 77.4299 379.01 70.0299 374.78 47.8199ZM348.55 72.9299C341.68 72.9299 336.11 67.3699 336.11 60.4999C336.11 53.6299 341.68 48.0599 348.55 48.0599C355.42 48.0599 360.98 53.6299 360.98 60.4999C360.98 67.3699 355.41 72.9299 348.55 72.9299Z" fill="#FF9F36"/>
<path d="M360.98 60.5001C360.98 67.3701 355.41 72.9301 348.55 72.9301C341.69 72.9301 336.11 67.3701 336.11 60.5001C336.11 53.6301 341.68 48.0601 348.55 48.0601C355.42 48.0601 360.98 53.6301 360.98 60.5001Z" fill="#092949"/>
<path d="M315.24 502.36C314.35 510.8 305.47 513.91 305.47 523.68C305.47 524.53 305.6 525.3 305.82 525.99C301.3 530.48 294.57 530.57 293 531.65H292.99L193.98 534.18C196.87 529.1 196.26 512.34 192.82 496.44C192.26 493.85 191.67 491.66 191.07 489.78L292.22 487.19L300.67 486.97C307.61 488.96 316.11 494.14 315.24 502.36Z" fill="#CC7E44" stroke="#231F20" stroke-width="0.83" stroke-miterlimit="10"/>
<path d="M184.37 534.12V534.43L180.47 534.53C180.54 532.87 180.43 531.67 180.43 531.67C180.43 531.67 182.13 532.95 184.37 534.12Z" fill="#2D2620" stroke="#231F20" stroke-width="0.83" stroke-miterlimit="10"/>
<path d="M344.11 519.24C345.44 510.36 346.33 501.47 344.11 488.15C343.98 487.36 343.82 486.6 343.64 485.87L463.24 482.81L464.38 527.26L341.11 530.42C342.54 526.99 343.53 523.07 344.11 519.24Z" fill="#CC7E44" stroke="#231F20" stroke-width="0.83" stroke-miterlimit="10"/>
<path d="M167.8 525.46C167.17 528.77 166.82 532.03 166.98 534.87L82.1602 537.04L1.79028 539.1L0.660156 494.65L101.27 492.07L152.92 490.75C152.5 491.54 152.26 492.02 152.26 492.02C152.26 492.02 161.59 489.48 166.03 492.02C170.47 494.55 169.58 516.13 167.8 525.46Z" fill="#CC7E44" stroke="#231F20" stroke-width="0.83" stroke-miterlimit="10"/>
<path d="M354.591 57.3601C354.591 55.6901 353.241 54.3401 351.571 54.3401C349.901 54.3401 348.551 55.6901 348.551 57.3601C348.551 59.0301 349.901 60.3801 351.571 60.3801C353.241 60.3801 354.591 59.0301 354.591 57.3601Z" fill="white"/>
<path d="M261.73 210.44C261.66 210.37 261.6 210.29 261.54 210.19C261.62 210.28 261.7 210.37 261.76 210.47C261.75 210.46 261.74 210.45 261.73 210.44Z" fill="#141311"/>
<path d="M264.171 234.14C251.741 268.77 176.241 360.26 131.831 382.46C131.011 382.87 130.211 383.28 129.431 383.7C121.851 387.7 116.191 391.78 111.951 395.72C97.0707 409.58 99.5506 421.9 97.1406 424.45C101.231 368.67 125.571 341.68 125.571 343.94C125.571 346.44 116.571 371.94 125.571 367.94C134.571 363.94 145.451 342.94 152.261 322.44C154.571 312.65 159.071 323.94 157.071 336.94C155.071 349.94 220.571 301.44 246.071 259.44C261.351 234.28 265.301 223.05 265.191 217.28C266.641 222.22 266.391 227.96 264.171 234.14Z" fill="#141311"/>
<path d="M374.47 293.69C367.87 316.11 345.711 345.38 319.601 372.61C296.881 396.3 271.171 418.46 250.101 433.21C268.451 415.49 297.541 385.63 323.841 350.99C344.171 331.04 362.11 310.8 374.47 293.69Z" fill="#1E1915" stroke="#231F20" stroke-width="0.88" stroke-miterlimit="10"/>
</svg>
