<svg width="835" height="635" viewBox="0 0 835 635" fill="none" xmlns="http://www.w3.org/2000/svg">
<path d="M830.251 106.95C820.511 109.1 797.121 106.55 771.361 110.97C744.401 115.6 649.131 128.08 594.351 128.88H594.331C576.901 124.28 574.311 118.18 571.251 111.33C568.191 104.49 552.69 98.6599 540.89 97.7499C529.09 96.8299 524.361 94.4499 525.081 90.2699C564.981 72.3399 681.621 71.1799 776.551 91.8399C794.831 95.8099 812.291 100.6 828.261 106.24C828.921 106.47 829.581 106.71 830.241 106.95H830.251Z" fill="#F44B34"/>
<path d="M828.27 106.24C812.3 100.6 794.84 95.81 776.56 91.84C733.86 75.42 728.55 63.25 739.09 57.05C751.37 49.84 773.94 40.36 804.97 59.99C826.56 73.65 835.08 103.69 828.28 106.24H828.27Z" fill="#282422"/>
<path d="M834.31 105.09C833.53 105.95 832.15 106.54 830.25 106.95C829.59 106.71 828.93 106.47 828.27 106.24C835.07 103.69 826.55 73.6499 804.96 59.9899C773.93 40.3599 751.36 49.8399 739.08 57.0499C728.54 63.2499 733.85 75.4199 776.55 91.8399C681.62 71.1799 564.98 72.3399 525.08 90.2599C525.81 86.0599 531.88 69.0999 529.04 55.2199C526.96 45.0299 520.67 26.2099 516.13 17.0399C516.17 16.9999 516.22 16.9699 516.26 16.9399C530.4 6.72989 575.44 -8.7901 670.75 7.3199C766.06 23.4299 827.32 50.8999 834.31 105.09Z" fill="#FF9F36"/>
<path d="M525.08 90.2598C524.28 90.6198 523.52 90.9898 522.78 91.3598C522.58 89.3398 522.59 87.5498 522.72 86.0898C523.65 75.4198 528.75 68.2098 523.06 48.5398C519.43 35.9798 515.53 28.1098 514.55 23.0898C514 20.3098 514.35 18.3998 516.13 17.0398C520.67 26.2098 526.96 45.0298 529.04 55.2198C531.88 69.0998 525.81 86.0598 525.08 90.2598Z" fill="#282422"/>
<path d="M594.33 128.88C586.58 128.99 579.65 128.88 573.83 128.46C569.73 128.17 565.96 127.69 562.47 127.05C531.49 121.34 523.85 102.78 522.78 91.3598C523.52 90.9898 524.28 90.6198 525.08 90.2698C524.36 94.4498 529.09 96.8298 540.89 97.7498C552.69 98.6598 568.19 104.49 571.25 111.33C574.31 118.18 576.9 124.28 594.33 128.88Z" fill="#282422"/>
<path d="M430.13 291.18C397.95 349.91 317.5 351.52 276.47 366.8C240.72 380.12 215.96 391 174.52 415.94C168.4 419.62 161.92 423.6 154.98 427.95C153.19 429.07 151.42 430.16 149.67 431.21C126.91 444.9 106.88 453.25 94.1699 456.25C86.3499 458.1 81.2901 457.92 80.1001 455.72C78.8401 453.45 81.6901 449.02 89.8101 442.43C119.58 418.29 157.15 342.54 228.19 272.67C293.35 208.59 329.54 190.62 357.18 173.88C384 173.82 412.91 180.26 436.57 189C447.27 192.96 453.93 198.25 457.22 205.21C457.22 205.21 457.24 205.25 457.23 205.26C458.3 207.51 459.01 209.94 459.39 212.55C461.87 229.76 449.97 254.96 430.13 291.18Z" fill="#282422"/>
<path d="M549.24 238.03C547.64 244.49 545.3 251.45 541.96 259C537.32 269.49 527.07 284.53 513.23 301.57H513.22C471.88 352.46 398.501 421.13 347.271 439.21C346.631 439.43 346.001 439.66 345.371 439.88C334.651 443.63 324.37 446.91 314.51 449.67C286.311 457.55 261.57 461.1 239.91 458.78H239.9C234.68 458.22 229.641 457.32 224.781 456.05C219.721 454.74 214.84 453.03 210.15 450.91C203.46 447.88 197.15 444 191.19 439.21C181.95 431.78 176.831 423.75 174.521 415.94C215.961 391 240.72 380.12 276.47 366.8C317.5 351.52 397.95 349.91 430.13 291.18C462.31 232.45 473.581 202.68 436.571 189C412.911 180.26 384 173.82 357.18 173.88C357.5 173.69 357.82 173.5 358.13 173.31C385.88 156.42 399.16 104.93 418.47 79.1799C437.75 53.4799 480.291 18.55 516.091 16.95C516.091 16.98 516.12 17.0099 516.13 17.0399C514.35 18.3999 514.001 20.3099 514.551 23.0899C494.161 30.8299 474.89 51.2599 461.68 71.0499C451.07 86.9499 444.39 102.43 444.21 110.56C443.81 129.06 449.041 183.77 484.841 218.37C516.491 248.95 536.35 255.33 549.24 238.03Z" fill="#282422"/>
<path d="M546.79 176.13C548.11 189.97 556.45 208.68 549.24 238.02C536.35 255.33 516.49 248.95 484.84 218.37C449.04 183.77 443.81 129.06 444.21 110.56C444.39 102.43 451.07 86.9498 461.68 71.0498C469.76 86.2698 495.12 86.3798 522.72 86.0898C522.59 87.5498 522.58 89.3398 522.78 91.3598C523.85 102.78 531.49 121.34 562.47 127.05C544.38 147.97 545.18 159.23 546.79 176.13Z" fill="#EAE1DA"/>
<path d="M224.781 456.05C181.531 464.44 151.06 487.2 135.15 496.74C141.58 487.94 146.451 475.77 148.871 462.64C150.781 452.36 151.19 441.49 149.67 431.21C151.42 430.16 153.19 429.07 154.98 427.95C161.92 423.6 168.401 419.62 174.521 415.94C176.831 423.75 181.95 431.78 191.19 439.21C197.15 444 203.46 447.88 210.15 450.91C214.84 453.03 219.721 454.74 224.781 456.05Z" fill="#282422"/>
<path d="M148.87 462.64C146.45 475.77 141.58 487.94 135.15 496.74C134.01 497.43 132.96 498.04 131.97 498.57C129.8 499.75 127.99 500.56 126.55 500.89C114.75 503.58 104.03 496.07 102.95 492.31C101.88 488.56 79.8901 510.01 75.6001 510.55C74.5601 510.68 75.2899 508.08 76.9599 503.83C81.2999 492.79 91.9699 470.59 94.1699 456.25C99.8099 454.92 106.89 452.53 115.02 449.09C125.2 444.79 137.01 438.82 149.67 431.21C151.19 441.49 150.78 452.36 148.87 462.64Z" fill="#282422"/>
<path d="M314.51 449.67C312.56 456.27 308.88 463.93 305.65 469.9C303.53 473.83 301.6 477.03 300.51 478.69C300.2 479.16 299.96 479.5 299.8 479.71C297.94 482.09 291.06 485.66 282.11 487.36C279.45 487.86 276.6 488.2 273.65 488.29C262.04 488.65 249.12 486.4 239.91 458.78C261.57 461.1 286.31 457.55 314.51 449.67Z" fill="#282422"/>
<path d="M345.371 439.88C342.451 448.52 333.75 459.08 327.96 462.56C324.51 464.63 321.511 466.47 317.591 467.8H317.581C314.431 468.88 310.68 469.63 305.65 469.9C308.88 463.93 312.56 456.27 314.51 449.67C324.37 446.91 334.651 443.63 345.371 439.88Z" fill="#282422"/>
<path d="M135.15 496.74C132.9 499.83 130.47 502.48 127.87 504.63C127.86 504.63 127.85 504.65 127.85 504.66C116.52 521.26 91.5403 556.87 64.0703 589.66C26.6603 634.31 24.2402 627.88 10.9702 633.51C-2.30977 639.14 -3.50964 626.67 7.35036 610.18C18.2104 593.68 43.5502 547.42 76.9602 503.83C75.2902 508.08 74.5604 510.68 75.6004 510.55C79.8904 510.01 101.88 488.56 102.95 492.31C104.03 496.07 114.75 503.58 126.55 500.89C127.99 500.56 129.8 499.75 131.97 498.57C132.96 498.04 134.01 497.43 135.15 496.74Z" fill="#141311"/>
<path d="M455.07 515.64C454.94 516.23 454.84 516.77 454.74 517.24C453.57 522.79 452.96 520.78 425.31 521.28C395.27 521.81 381.86 515.38 362.02 517.52C342.17 519.67 317.1 525.3 307.04 532.54C298.09 538.98 291.69 545.42 284.72 544.5C283.86 544.38 282.99 544.15 282.1 543.8C280.37 543.11 279.54 542.04 279.37 540.74C278.75 535.97 287.13 528.23 293.76 525.7C302.21 522.48 315.08 514.84 324.34 514.84C333.6 514.84 330.37 504.78 323.13 502.37C317.1 500.36 294.06 493.89 282.11 487.36C291.06 485.66 297.94 482.09 299.8 479.71C299.96 479.5 300.2 479.16 300.51 478.69C320.81 486.31 352.35 499.69 361.21 500.89C365.76 501.51 367.89 502.64 371.86 503.76H371.89C376.58 505.07 383.84 506.36 400.63 506.79C431.74 507.6 430.94 505.72 440.59 504.92C442.9 504.73 445.02 504.81 446.9 505.15C450.68 505.84 453.44 507.57 454.64 510.2C455.34 511.72 455.52 513.54 455.07 515.64Z" fill="#5E5853"/>
<path d="M282.9 562.58C277.38 562.12 273.83 547.83 279.37 540.74C279.54 542.04 280.37 543.11 282.1 543.8C282.99 544.15 283.86 544.38 284.72 544.5C279.3 555.45 285.32 560.7 285.32 560.7C285.32 560.7 287.46 562.58 282.9 562.58Z" fill="#282422"/>
<path d="M469.821 529.86C469.821 529.86 468.931 519.82 454.741 517.24C454.841 516.77 454.941 516.23 455.071 515.64C455.521 513.54 455.341 511.72 454.641 510.2C457.071 510.32 459.231 510.85 461.141 511.66H461.151C468.081 514.56 471.591 520.97 471.971 523.96C472.511 528.25 469.821 529.86 469.821 529.86Z" fill="#282422"/>
<path d="M446.901 505.15C445.021 504.81 442.901 504.73 440.591 504.92C430.941 505.72 431.741 507.6 400.631 506.79C383.841 506.36 376.581 505.07 371.891 503.76C400.451 506.19 411.711 503.79 422.091 500.89C428.831 499.01 436.021 497.86 440.881 498.09C444.091 498.24 446.291 498.99 446.701 500.52C446.731 500.64 446.751 500.76 446.761 500.89C446.901 502.75 446.921 504.15 446.901 505.15Z" fill="#5E5853"/>
<path d="M461.15 511.66H461.14C459.23 510.85 457.07 510.32 454.64 510.2C453.44 507.57 450.68 505.84 446.9 505.15C446.92 504.15 446.9 502.75 446.76 500.89C446.75 500.76 446.73 500.64 446.7 500.52C460.35 500.47 463.34 506.61 463.83 509.11C464.35 511.7 461.34 511.67 461.15 511.66Z" fill="#282422"/>
<path d="M440.88 498.09C436.02 497.86 428.83 499.01 422.09 500.89C411.71 503.79 400.45 506.19 371.89 503.76H371.86C367.89 502.64 365.76 501.51 361.21 500.89C352.35 499.69 320.81 486.31 300.51 478.69C301.6 477.03 303.53 473.83 305.65 469.9C310.68 469.63 314.43 468.88 317.58 467.8H317.59C337.87 477.63 367.5 494.83 384.81 496.07C403.58 497.41 405.46 498.75 421.02 496.07C433.4 493.94 438.97 495.28 440.88 498.09Z" fill="#3F3A36"/>
<path d="M523.06 48.5399C519.43 35.9799 515.53 28.1098 514.55 23.0898C494.16 30.8298 474.89 51.2598 461.68 71.0498C469.76 86.2698 495.12 86.3798 522.72 86.0898C523.65 75.4198 528.75 68.2099 523.06 48.5399ZM503.75 77.1498C496.84 77.1498 491.23 71.5499 491.23 64.6399C491.23 57.7299 496.84 52.1198 503.75 52.1198C510.66 52.1198 516.26 57.7199 516.26 64.6399C516.26 71.5599 510.66 77.1498 503.75 77.1498Z" fill="#FF9F36"/>
<path d="M516.26 64.6399C516.26 71.5499 510.66 77.1499 503.75 77.1499C496.84 77.1499 491.23 71.5499 491.23 64.6399C491.23 57.7299 496.84 52.1199 503.75 52.1199C510.66 52.1199 516.26 57.7199 516.26 64.6399Z" fill="#092949"/>
<path d="M512.39 60.4399C512.39 58.7699 511.041 57.4199 509.371 57.4199C507.701 57.4199 506.351 58.7699 506.351 60.4399C506.351 62.1099 507.701 63.4599 509.371 63.4599C511.041 63.4599 512.39 62.1099 512.39 60.4399Z" fill="white"/>
<path d="M430.13 291.18C397.95 349.91 317.5 351.52 276.47 366.8C240.72 380.12 215.961 391 174.521 415.94C168.401 419.62 161.92 423.6 154.98 427.95C153.19 429.07 151.42 430.16 149.67 431.21C126.91 444.9 106.88 453.25 94.1704 456.25C86.3504 458.1 81.2906 457.92 80.1006 455.72C157.451 424.36 262.851 317.28 262.851 334.18C262.851 352.85 245.02 369.51 250.63 366.85C300.51 356.85 348.18 303.84 348.18 307.18C343.87 317.3 321.06 341.38 327.18 339.85C337.85 337.18 345.37 338.66 358.18 330.85C404.54 302.61 443.401 260.44 458.081 207C459.191 213.2 459.691 218.77 458.871 225.05C454.651 248.62 441.5 270.43 430.13 291.18Z" fill="#141311"/>
<path d="M513.22 301.57C471.88 352.46 398.5 421.13 347.27 439.21C346.63 439.43 346 439.66 345.37 439.88C334.65 443.63 324.37 446.91 314.51 449.67C286.31 457.55 261.57 461.1 239.91 458.78H239.9C234.68 458.22 229.64 457.32 224.78 456.05C181.53 464.44 151.06 487.2 135.15 496.74C134.01 497.43 132.96 498.04 131.97 498.57C129.8 499.75 127.99 500.56 126.55 500.89C114.75 503.58 104.03 496.07 102.95 492.31C101.88 488.56 79.8901 510.01 75.6001 510.55C74.5601 510.68 75.2899 508.08 76.9599 503.83C81.2999 492.79 91.9699 470.59 94.1699 456.25C99.8099 454.92 106.89 452.53 115.02 449.09C122.73 459.21 134.49 462.78 148.87 462.64C166.31 462.48 187.59 456.87 210.15 450.91C225.51 446.85 241.45 442.64 257.18 439.88C318.18 429.18 386.13 417.52 437.51 373.51C488.9 329.51 513.22 301.57 513.22 301.57Z" fill="#141311"/>
</svg>
