<svg width="979" height="777" viewBox="0 0 979 777" fill="none" xmlns="http://www.w3.org/2000/svg">
<path d="M669.401 399.3C659.201 395.4 639.381 390.71 620.091 402.51C609.691 408.88 601.331 422.41 592.611 437.36C586.111 448.53 579.411 460.48 571.521 470.84C561.921 483.44 550.541 493.66 535.611 497.18C491.971 507.48 475.241 507.18 455.961 537.41C439.591 563.08 419.681 616.56 479.181 632.24C461.841 638.26 441.691 644.01 418.151 649.24C380.251 657.66 345.961 666.08 316.041 673C309.781 665.44 306.331 659.09 296.401 652.73C300.421 651.12 318.921 604.68 280.841 603.65C254.831 602.94 248.931 636.9 248.931 636.9C239.541 646.29 261.801 662.92 278.431 669.08C283.461 670.95 289.791 673.92 296.281 677.48C236.041 690.78 197.051 695.46 187.101 676.36C186.861 675.91 186.641 675.45 186.441 674.98C177.141 653.11 235.131 608.44 297.991 566.95C304.861 567.7 312.191 567.81 320.001 567.18C458.981 556.02 511.481 480.29 502.631 465.8C499.931 461.38 496.331 455.08 492.991 445.52C498.631 443.47 504.071 442.29 509.721 441.98C511.531 441.87 513.361 441.86 515.231 441.94C546.881 443.28 565.191 432.41 579.901 411.56C592.901 392.39 615.401 379.72 640.981 379.72C651.101 379.72 660.751 381.7 669.511 385.3C666.401 387.44 667.341 391.65 669.401 399.3Z" fill="#282422"/>
<path d="M972.33 503.05H972.32C959.09 496.94 944.68 491.35 929.56 486.32C929.53 486.31 929.51 486.3 929.49 486.29C891.47 467.18 887.51 455.35 897.52 450.53C909 445 929.8 438.27 955.68 458.83C973.88 473.28 978.86 501.83 972.33 503.05Z" fill="#141311"/>
<path d="M737.19 503.78C729.46 503.17 722.56 502.41 716.8 501.46C708.54 500.1 701.68 498.07 695.98 495.6C674.01 486.07 669.43 469.9 669.42 459.77C670.18 459.47 670.98 459.18 671.81 458.9C670.71 462.99 675.2 465.8 686.87 467.82C698.53 469.83 713.41 477.07 715.83 484.17C718.24 491.27 720.25 497.58 737.19 503.78Z" fill="#141311"/>
<path d="M974.111 503.9C964.211 505.12 941.161 500.41 915.101 502.42C887.821 504.51 791.821 508.08 737.201 503.79H737.191C720.251 497.58 718.241 491.27 715.831 484.17C713.411 477.07 698.531 469.83 686.871 467.82C675.201 465.8 670.711 462.99 671.811 458.9C681.851 455.46 696.301 453.44 713.751 452.75C770.161 450.55 857.921 462.38 929.491 486.29C929.511 486.29 929.531 486.31 929.561 486.32C944.681 491.35 959.091 496.94 972.321 503.05H972.331C972.931 503.33 973.521 503.61 974.111 503.9Z" fill="#F44B34"/>
<path d="M978.321 502.42C977.461 503.2 976.031 503.66 974.111 503.9C973.521 503.61 972.931 503.33 972.331 503.05C978.861 501.83 973.881 473.28 955.681 458.83C929.801 438.27 909.001 445 897.521 450.53C887.511 455.35 891.471 467.18 929.491 486.29C857.921 462.38 770.161 450.55 713.751 452.75C696.301 453.44 681.851 455.46 671.811 458.9C672.921 454.81 680.561 438.47 679.021 424.37C678.381 418.52 676.661 409.77 674.621 401.56C673.091 395.41 671.381 389.55 669.821 385.42C669.791 385.33 669.751 385.24 669.721 385.16C669.771 385.13 669.811 385.1 669.861 385.07C684.881 376.22 731.171 364.95 824.571 389.86C917.971 414.76 976.411 447.81 978.321 502.42Z" fill="#FF9F36"/>
<path d="M671.81 458.9C670.98 459.18 670.18 459.47 669.42 459.77C669.42 458.93 669.45 458.13 669.51 457.38C669.58 456.32 669.71 455.36 669.86 454.52C671.78 443.98 677.52 437.28 673.69 417.16C672.28 409.76 670.64 403.91 669.4 399.3C667.34 391.65 666.4 387.44 669.51 385.3C669.62 385.33 669.72 385.38 669.82 385.42C671.38 389.55 673.09 395.41 674.62 401.56C676.66 409.77 678.38 418.52 679.02 424.37C680.56 438.47 672.92 454.81 671.81 458.9Z" fill="#141311"/>
<path d="M695.98 495.6C689.33 502.96 681.11 508.97 671.81 513.14C671.79 513.15 671.78 513.16 671.76 513.17C623.3 537.41 614.71 539.03 594.88 557.25C578.62 572.2 557.85 604.97 479.18 632.24C419.68 616.56 439.59 563.08 455.96 537.41C475.24 507.18 491.97 507.48 535.61 497.18C550.54 493.66 561.92 483.44 571.52 470.84C579.41 460.48 586.11 448.53 592.61 437.36C597.35 445.84 620.07 454.51 669.51 457.38C669.45 458.13 669.42 458.93 669.42 459.77C669.42 469.9 674.01 486.07 695.98 495.6Z" fill="#EAE1DA"/>
<path d="M424.57 542.15C413.26 547.16 400.65 551.74 386.69 555.64C386.62 555.66 386.54 555.68 386.47 555.69C383.62 556.49 380.72 557.25 377.76 557.98C377.71 557.99 377.66 558.01 377.61 558.02C360.35 562.28 341.18 565.48 320 567.18C312.19 567.81 304.86 567.7 297.99 566.95C285.12 565.54 273.84 561.87 263.99 556.45C204.75 523.91 197.27 428.62 208.16 386.96C221.84 334.66 200.92 317.77 196.1 314.55C192.35 312.06 180.38 303.75 179.34 298.65C179.02 297.17 179.62 295.96 181.61 295.24C186.1 293.6 190.8 287.42 191.81 281.31C192.81 275.36 190.33 269.48 180.81 267.89C164.71 265.21 153.09 256.37 158.53 251.64C159.61 250.69 161.38 249.91 163.92 249.38C174.65 247.13 196.87 236.54 195.25 231.08C194.57 228.76 189.58 227.37 177.59 227.93C177.59 227.93 134.68 229 135.76 220.42C135.85 219.67 136.46 218.79 137.49 217.82C148.2 207.65 204.74 186.6 208.16 180.73C208.3 180.49 208.34 180.24 208.28 179.98C206.82 173.24 141.62 159.77 140.54 158.74C140.12 158.34 140.1 156.42 142.19 153.93C145.67 149.79 155.02 144.06 178.13 141.04C215.14 136.21 250 136.75 256.44 136.75C257.74 136.75 258.66 136.49 259.03 136C260.53 134.07 253.38 128.58 226.4 121.73C194.44 113.61 149.04 89.18 141.95 86.56C141.54 86.41 141.26 86.33 141.12 86.33C138.44 86.33 143.8 75.6 183.49 74.53C222.66 73.47 285.33 93.83 283.36 88.7C283.34 88.62 283.3 88.56 283.25 88.48C279.86 83.14 218 37.36 206.31 28.73C205.08 27.83 204.41 27.33 204.41 27.33C204.41 27.33 216.21 14.99 275.75 36.99C324.3 54.93 334.68 69.64 335.12 70.1C335.12 70.05 334.93 69.74 334.66 69.14C334.52 68.86 334.37 68.51 334.21 68.09C331.05 60.21 294.89 9.50996 289.95 5.52996C289.85 5.43996 289.76 5.37996 289.69 5.33996C285.94 3.18996 287.01 -3.24004 309 2.65996C328.36 7.85996 380.99 56.29 390.73 61.94C392.06 62.71 392.59 62.69 392.14 61.66C389.08 54.67 377.83 23.84 379.57 18.15C379.97 16.85 381.04 16.87 383.02 18.75C390.04 25.42 438.45 104.99 467.43 188.26C482.71 232.17 492.59 277.11 488.14 312.94C479.2 385.05 485.4 423.75 492.99 445.52C496.33 455.08 499.93 461.38 502.63 465.8C508.75 475.83 485.51 515.17 424.57 542.15Z" fill="#282422"/>
<path d="M562.16 279.42C565.92 328.76 549.29 367.38 520.33 385.08C493.66 401.37 496.54 413.57 509.72 441.98C504.07 442.29 498.63 443.47 492.99 445.52C485.4 423.75 479.2 385.05 488.14 312.94C492.59 277.11 482.71 232.17 467.43 188.26C465.29 162.5 467.46 137.67 469.64 136.48C472.59 134.87 473.66 135.94 484.66 156.59C495.31 176.59 498.41 185.27 498.59 185.79C498.44 185.21 495.95 175.47 496.73 153.64C497.53 131.12 505.84 123.07 507.99 123.61C510.13 124.14 511.48 127.9 517.11 165.71C522.74 203.52 533.2 216.13 535.34 216.13C537.48 216.13 534 186.63 540.17 170.81C546.34 154.98 557.07 132.19 561.36 133.53C565.65 134.87 563.77 154.98 559.48 173.22C555.19 191.46 558.41 230.07 562.16 279.42Z" fill="#141311"/>
<path d="M296.4 652.73C282.99 644.14 270.49 650.06 259.66 645.22C248.82 640.37 250.27 635.56 248.93 636.9C248.93 636.9 254.83 602.94 280.84 603.65C318.92 604.68 300.42 651.12 296.4 652.73Z" fill="#141311"/>
<path d="M353.55 711.61C353.43 718.13 348.75 725.12 343.6 733.18C335.01 746.59 324.29 753.83 314.63 760C310.37 762.73 305.01 765.97 299.68 768.86C292.94 772.52 286.25 775.61 281.91 776.36C278.77 776.9 276.72 776.04 275.56 774.43C274.44 772.9 274.14 770.69 274.45 768.36C274.62 767.1 274.98 765.8 275.48 764.56C275.61 764.25 275.75 763.96 275.91 763.68C278.74 758.65 286.36 758.55 293.98 756.51C299.01 755.17 308.12 749.85 315.23 745.07C315.25 745.06 315.26 745.05 315.28 745.03C315.33 745 315.38 744.97 315.43 744.95C319.61 742.11 323.06 739.5 324.55 738.01C328.58 733.98 333.94 717.09 329.92 705.29C327.12 697.06 311.26 685.69 296.28 677.48C289.79 673.92 283.46 670.95 278.43 669.08C261.8 662.92 239.54 646.29 248.93 636.9C250.27 635.56 248.82 640.37 259.66 645.22C270.49 650.06 282.99 644.14 296.4 652.73C306.33 659.09 309.78 665.44 316.04 673C318.22 675.64 320.75 678.43 324.02 681.42C336.62 692.95 333.67 688.93 346.55 699.12C351.68 703.18 353.62 707.29 353.55 711.61Z" fill="#5E5853"/>
<path d="M353.54 735.32C350.08 742.3 338.5 757.85 335.28 759.19C332.06 760.53 318.39 770.19 313.83 770.72C310.4 771.13 305.76 770.32 299.68 768.86C305.01 765.97 310.37 762.73 314.63 760C324.29 753.83 335.01 746.59 343.6 733.18C348.75 725.12 353.43 718.13 353.55 711.62C358.03 718.43 356.62 729.11 353.55 735.32H353.54Z" fill="#5E5853"/>
<path d="M315.23 745.07C308.12 749.85 299.01 755.17 293.98 756.51C286.36 758.55 278.74 758.65 275.91 763.68C271.8 762.74 268.71 761.68 268.24 760.27C268.06 759.72 267.99 759.09 268.02 758.43C268.12 756.19 269.36 753.56 270.94 752.37C271.6 751.87 272.33 751.63 273.06 751.79C276.01 752.43 278.96 750.61 290.5 751.68C297.12 752.3 306.04 750.26 315.23 745.07Z" fill="#5E5853"/>
<path d="M275.561 774.43C265.251 776.71 261.281 767.68 261.871 766.7C262.421 765.78 266.221 769.62 274.451 768.36C274.141 770.69 274.441 772.9 275.561 774.43Z" fill="#2D2620"/>
<path d="M270.939 752.37C269.359 753.56 268.119 756.19 268.019 758.43C266.509 757.76 264.859 756.4 264.179 753.63C262.769 747.9 265.289 744.88 265.589 745.18C265.849 745.44 266.269 749.2 270.939 752.37Z" fill="#2D2620"/>
<path d="M637.521 442.61C644.408 442.61 649.991 437.027 649.991 430.14C649.991 423.253 644.408 417.67 637.521 417.67C630.634 417.67 625.051 423.253 625.051 430.14C625.051 437.027 630.634 442.61 637.521 442.61Z" fill="#092949"/>
<path d="M673.689 417.16C672.279 409.76 670.639 403.91 669.399 399.3C659.199 395.4 639.379 390.71 620.089 402.51C609.689 408.88 601.329 422.41 592.609 437.36C597.349 445.84 620.069 454.51 669.509 457.38C669.579 456.32 669.709 455.36 669.859 454.52C671.779 443.98 677.519 437.28 673.689 417.16ZM637.519 445.69C628.929 445.69 621.959 438.73 621.959 430.14C621.959 421.55 628.929 414.58 637.519 414.58C646.109 414.58 653.079 421.54 653.079 430.14C653.079 438.74 646.109 445.69 637.519 445.69Z" fill="#FF9F36"/>
<path d="M637.521 414.58C628.931 414.58 621.961 421.54 621.961 430.14C621.961 438.74 628.931 445.69 637.521 445.69C646.111 445.69 653.081 438.73 653.081 430.14C653.081 421.55 646.111 414.58 637.521 414.58ZM637.521 442.61C630.631 442.61 625.051 437.02 625.051 430.14C625.051 423.26 630.631 417.67 637.521 417.67C644.411 417.67 649.991 423.25 649.991 430.14C649.991 437.03 644.411 442.61 637.521 442.61Z" fill="#C16C17"/>
<path d="M186.44 674.98C186.64 675.45 186.86 675.91 187.1 676.36C170.29 694.88 114.73 738.73 108.4 740.07C101.16 741.6 108.94 727.55 100.89 731.03C92.8504 734.52 74.3404 741.49 71.1204 740.07C67.9104 738.65 77.0204 733.72 69.2504 737.74C61.4704 741.76 49.4004 739.62 47.2604 740.07C45.1104 740.52 55.8404 727.82 51.0104 728.62C46.1804 729.42 29.2904 732.91 25.5304 731.03C21.7804 729.16 27.6804 722.45 29.8304 718.97C31.9704 715.48 26.0704 714.41 18.2904 713.87C10.5204 713.33 5.4204 710.12 8.1004 709.31C10.7804 708.51 14.5404 705.82 20.4404 701.27C26.3404 696.71 47.2604 688.39 48.0604 686.78C48.8704 685.17 2.7404 685.17 3.0104 684.1C3.2804 683.03 3.8104 680.35 22.8504 676.86C41.8904 673.37 68.7104 662.92 68.7104 661.58C68.7104 660.24 48.3304 662.11 28.4804 661.58C8.64039 661.04 -6.1096 648.97 3.5404 648.97C13.1904 648.97 44.5804 643.34 49.4004 642.27C54.2304 641.19 19.3704 635.03 9.1604 632.88C-1.0396 630.73 -3.1596 628.05 17.2204 628.18C37.6004 628.31 70.3204 626.44 72.4704 624.3C74.6104 622.15 55.8404 614.64 34.3804 606.6C12.9304 598.55 4.8804 577.1 11.3204 581.09C17.7604 585.08 19.3704 585.14 40.2804 594.26C61.2004 603.38 84.2704 616.25 172.76 610.35C255.93 604.81 221.63 587.42 263.99 556.45C273.84 561.87 285.12 565.54 297.99 566.95C235.13 608.44 177.14 653.11 186.44 674.98Z" fill="#141311"/>
<path d="M424.57 542.15C413.83 547.34 401.28 551.99 386.69 555.64C386.62 555.66 386.54 555.68 386.47 555.69C383.5 556.44 380.59 557.2 377.76 557.98C377.71 557.99 377.66 558.01 377.61 558.02C360.35 562.28 341.18 565.48 320 567.18C312.19 567.81 304.86 567.7 297.99 566.95C285.12 565.54 273.84 561.87 263.99 556.45C204.75 523.91 197.27 428.62 208.16 386.96C221.84 334.66 200.92 317.77 196.1 314.55C192.35 312.06 180.38 303.75 179.34 298.65C187.44 301.83 195.32 309.03 204.04 308.06C216.04 306.73 231.38 341.32 225.38 374.69C219.38 408.06 230.81 527.43 304.43 534.41C378.04 541.4 374.51 532.22 395.38 534.41C420.71 537.08 471.52 505.81 482.32 485.4C487.26 476.06 478.96 515.9 424.57 542.15Z" fill="#141311"/>
<path d="M191.811 281.31C192.811 275.36 190.331 269.48 180.811 267.89C164.711 265.21 153.091 256.37 158.531 251.64C160.081 258.38 179.291 258.23 199.041 256.73C221.041 255.06 206.901 282.56 191.811 281.31Z" fill="#141311"/>
<path d="M195.25 231.08C194.57 228.76 189.58 227.37 177.59 227.93C177.59 227.93 134.68 229 135.76 220.42C135.85 219.67 136.46 218.79 137.49 217.82C134.38 227.73 171.71 215.06 192.38 215.06C209.57 215.06 205.54 224.75 195.25 231.08Z" fill="#141311"/>
<path d="M208.281 179.98C206.821 173.24 141.621 159.77 140.541 158.74C140.121 158.34 140.101 156.42 142.191 153.93C142.201 153.92 142.211 153.92 142.211 153.92C139.041 163.4 170.041 163.06 202.041 161.73C234.041 160.4 256.381 168.06 258.381 174.4C259.701 178.59 233.381 178.55 208.281 179.98Z" fill="#141311"/>
<path d="M269.041 137.73C265.491 137.12 262.161 136.55 259.031 136C260.531 134.07 253.381 128.58 226.401 121.73C194.441 113.61 149.041 89.18 141.951 86.56C183.711 86.13 249.351 101.87 269.041 114.4C291.041 128.4 315.711 145.73 269.041 137.73Z" fill="#141311"/>
<path d="M283.361 88.69C302.451 97.39 321.381 106.06 321.381 106.06C321.381 106.06 319.711 92.4 306.381 77.73C294.091 64.22 249.021 38 206.311 28.73" fill="#141311"/>
<path d="M355.381 88.3999C352.581 86.3399 344.221 78.8299 334.661 69.1399C334.521 68.8599 334.371 68.5099 334.211 68.0899C331.051 60.2099 294.891 9.50991 289.951 5.52991C320.731 22.7999 338.651 43.6699 348.041 60.3999C358.711 79.3999 360.381 92.0599 355.381 88.3999Z" fill="#141311"/>
<path d="M390.73 61.9399C392.06 62.7099 392.59 62.6899 392.14 61.6599C389.08 54.6699 377.83 23.8399 379.57 18.1499C392.41 42.7899 399.94 67.7399 401.71 73.0599C402.81 76.3599 396.94 70.2699 390.73 61.9399Z" fill="#141311"/>
<path d="M644.71 429.82C646.715 429.82 648.34 428.195 648.34 426.19C648.34 424.185 646.715 422.56 644.71 422.56C642.705 422.56 641.08 424.185 641.08 426.19C641.08 428.195 642.705 429.82 644.71 429.82Z" fill="white"/>
</svg>
