<svg width="661" height="759" viewBox="0 0 661 759" fill="none" xmlns="http://www.w3.org/2000/svg">
<path d="M98.0207 115.39C98.0207 115.39 97.9906 115.4 97.9806 115.41C86.2806 119.58 75.0606 124.07 64.6106 128.91C58.0606 127.49 63.0807 95.6 81.3807 79.46C107.431 56.47 128.371 63.99 139.921 70.18C150.801 75.99 145.301 90.94 98.0207 115.39Z" fill="#282422"/>
<path d="M365.119 84.7501C321.149 69.7501 192.829 81.6001 98.0194 115.39C145.299 90.9401 150.799 75.9901 139.919 70.1801C128.369 63.9901 107.429 56.4701 81.3794 79.4601C63.0794 95.6001 58.0594 127.49 64.6094 128.91C63.9994 129.19 63.3994 129.47 62.7994 129.75H62.7894C60.8794 129.52 59.4594 129.05 58.6094 128.28C60.5194 73.6701 118.959 40.6201 212.359 15.7101C305.759 -9.18993 352.049 2.08005 367.069 10.9301C367.119 10.9601 367.159 10.9901 367.209 11.0201C363.549 20.5701 359.039 39.8901 357.909 50.2301C356.369 64.3201 363.999 80.6501 365.119 84.7501Z" fill="#FF9F36"/>
<path d="M367.51 85.63C367.5 95.92 362.77 112.43 339.89 121.9C334.41 124.17 327.88 126.04 320.13 127.32C314.46 128.26 307.67 129.01 300.08 129.62C316.71 123.46 318.71 117.08 321.1 110.03C323.52 102.92 338.4 95.68 350.07 93.67C361.71 91.66 366.21 88.84 365.13 84.76C365.96 85.03 366.75 85.33 367.51 85.63Z" fill="#282422"/>
<path d="M350.071 93.67C338.401 95.68 323.521 102.92 321.101 110.03C318.711 117.08 316.711 123.46 300.081 129.62C245.521 133.96 149.171 130.38 121.831 128.28C95.7507 126.27 72.7008 130.99 62.8008 129.75C63.4008 129.47 64.0007 129.19 64.6107 128.91C75.0607 124.07 86.2807 119.58 97.9807 115.41C97.9907 115.4 98.0008 115.39 98.0208 115.39C192.831 81.6 321.151 69.75 365.121 84.75C365.121 84.75 365.121 84.76 365.131 84.76C366.211 88.84 361.711 91.66 350.071 93.67Z" fill="#F44B34"/>
<path d="M300.08 129.62C299.97 129.66 299.85 129.71 299.73 129.75" stroke="#231F20" stroke-width="0.79" stroke-miterlimit="10"/>
<path d="M365.13 84.76L365.12 84.75" stroke="#231F20" stroke-width="0.79" stroke-miterlimit="10"/>
<path d="M367.469 83.94C367.489 84.48 367.509 85.05 367.509 85.63C366.749 85.33 365.949 85.03 365.119 84.76C363.999 80.65 356.37 64.32 357.91 50.23C359.04 39.89 363.549 20.57 367.209 11.02C368.419 11.77 369.07 12.8 369.31 14.18C370.14 18.87 366.179 27.58 363.239 43.02C359.409 63.13 365.159 69.84 367.069 80.38C367.249 81.4 367.399 82.6 367.469 83.94Z" fill="#282422"/>
<path d="M518.49 448.07C499.83 472.03 484.73 487.48 470.35 497.26C464.67 501.13 459.11 504.11 453.48 506.38C440.17 511.76 426.5 513.18 410.16 512.97C378.32 512.55 337.65 490.54 317.79 445.91C335.74 421.35 360.41 359.98 365.69 316.82C369.7 318.48 373.92 319.63 378.24 320.15C402.92 323.1 417.13 317.57 436.17 316.44C455.21 315.32 482.03 321.49 494.36 289.84C502.02 270.19 502.34 254.99 501.68 244.81C507.73 208.31 501.84 167.75 492.76 148.78C480.96 124.11 458.97 101.04 455.75 84.9501C454.36 77.9801 452.26 68.1001 448.08 58.6201C442.62 46.1901 433.6 34.4301 417.93 30.7801C390.31 24.3501 387.36 24.6101 382.8 21.9301C378.88 19.6301 373.08 15.5301 369.32 14.1801C369.08 12.8001 368.43 11.7701 367.22 11.0201C367.24 10.9701 367.26 10.9301 367.28 10.8801C370.78 10.0001 419.72 -1.21991 460.04 46.3401C501.87 95.6801 509.38 150.39 508.85 175.6C508.31 200.81 526.55 219.58 539.96 249.08C545.46 261.19 550.15 287.48 550.76 318.15C551.64 362.17 544.11 415.19 518.5 448.07H518.49Z" fill="#282422"/>
<path d="M367.27 10.8801C367.14 10.9101 367.07 10.9301 367.07 10.9301" stroke="#231F20" stroke-width="0.79" stroke-miterlimit="10"/>
<path d="M365.68 316.81C365.11 321.48 364.31 326.36 363.32 331.38C355.15 372.82 333.79 424 317.78 445.91C316.9 443.94 316.07 441.94 315.29 439.89H315.28C312.99 433.94 311.06 427.64 309.55 420.96C308.26 415.25 307.28 409.27 306.63 403.01C300.66 344.61 320.1 286.22 335.87 257.71C336.11 263.58 336.69 269.1 337.69 274.08C333.23 289.96 346.96 309.05 365.68 316.81Z" fill="#282422"/>
<path d="M472.041 515.84C462.271 525.58 451.03 535.9 437.94 541.52H437.931C413.791 536.8 388.62 531.88 363.08 526.9C362.79 525.18 362.471 523.31 362.141 521.28C359.731 506.53 349.271 503.31 342.301 500.36C336.681 497.99 327.25 503.25 320.57 513.23C312.95 503.87 311.78 480.85 314.32 450.28C315.43 449 316.591 447.54 317.781 445.91C337.641 490.54 378.311 512.55 410.151 512.97C426.491 513.18 440.16 511.76 453.47 506.38C460.08 508.79 466.251 512.1 472.031 515.84H472.041Z" fill="#141311"/>
<path d="M317.78 445.91C316.59 447.54 315.43 449 314.32 450.28L315.28 439.89H315.29C316.07 441.94 316.9 443.94 317.78 445.91Z" fill="#141311"/>
<path d="M315.28 439.89L314.32 450.28C314.59 446.91 314.92 443.44 315.28 439.89Z" fill="#141311"/>
<path d="M544.77 414.81C534.05 449.14 517.95 488.3 500.25 492.59C495 493.86 489.19 498.81 482.65 505.21C478.87 502.73 474.78 500.08 470.35 497.26C484.73 487.48 499.83 472.03 518.49 448.07C544.1 415.19 551.63 362.17 550.75 318.15C559.54 345.86 553.91 385.59 544.77 414.81Z" fill="#141311"/>
<path d="M550.75 318.15C549.21 313.31 547.24 308.84 544.77 304.86" stroke="#231F20" stroke-width="0.79" stroke-miterlimit="10"/>
<path d="M501.67 244.81C499.85 255.77 496.96 266.36 492.75 275.9C474.51 317.2 452.52 304.32 428.17 311.83C411 317.13 386.67 319.53 366.38 309.71C357.91 305.62 350.15 299.4 343.91 290.38C340.99 286.15 338.98 280.57 337.69 274.08C337.07 270.97 336.6 267.64 336.29 264.16C336.1 262.06 335.96 259.91 335.87 257.71C334.15 215.69 349.41 155.94 349 149.85C348.55 142.99 342.61 136.11 339.89 121.9C362.77 112.43 367.5 95.9201 367.51 85.6301C367.51 85.0501 367.49 84.4801 367.47 83.9401C396.45 86.8901 436.31 73.8401 442.33 68.0101C445.88 64.5601 447.41 60.9801 448.07 58.6201C448.69 60.0201 449.26 61.4201 449.78 62.8301C449.81 62.8901 449.83 62.9501 449.85 63.0101C449.85 63.0301 449.87 63.0601 449.88 63.0801C450.15 63.8101 450.41 64.5301 450.66 65.2501C453.19 72.5401 454.67 79.6001 455.74 84.9501C458.96 101.04 480.95 124.11 492.75 148.78C501.83 167.75 507.72 208.31 501.67 244.81Z" fill="#F4EAE4"/>
<path d="M417.92 30.7801C390.3 24.3501 387.35 24.6101 382.79 21.9301C378.87 19.6301 373.07 15.5301 369.31 14.1801C370.14 18.8701 366.18 27.5801 363.24 43.0201C359.41 63.1301 365.16 69.8401 367.07 80.3801C367.25 81.4001 367.4 82.6001 367.47 83.9401C396.45 86.8901 436.31 73.8401 442.33 68.0101C445.88 64.5601 447.41 60.9801 448.07 58.6201C442.61 46.1901 433.59 34.4301 417.92 30.7801ZM398.08 63.8701C392.36 63.8701 387.72 59.2301 387.72 53.5101C387.72 47.7901 392.36 43.1501 398.08 43.1501C403.8 43.1501 408.44 47.7901 408.44 53.5101C408.44 59.2301 403.8 63.8701 398.08 63.8701Z" fill="#FF9F36"/>
<path d="M408.44 53.51C408.44 59.23 403.8 63.87 398.08 63.87C392.36 63.87 387.72 59.23 387.72 53.51C387.72 47.79 392.36 43.15 398.08 43.15C403.8 43.15 408.44 47.79 408.44 53.51Z" fill="#092949"/>
<path d="M448.56 55.92C448.56 55.92 448.53 56.97 448.07 58.62" stroke="#231F20" stroke-width="0.79" stroke-miterlimit="10"/>
<path d="M367.47 83.9402C367.38 83.9402 367.3 83.9402 367.21 83.9202" stroke="#231F20" stroke-width="0.79" stroke-miterlimit="10"/>
<path d="M494.35 289.84C482.02 321.49 455.2 315.32 436.16 316.44C417.12 317.57 402.91 323.1 378.23 320.15C373.91 319.63 369.69 318.48 365.68 316.82C346.96 309.05 333.23 289.96 337.69 274.08C338.98 280.57 340.99 286.15 343.91 290.38C350.15 299.4 357.91 305.62 366.38 309.71C386.67 319.53 411 317.13 428.17 311.83C452.52 304.32 474.51 317.2 492.75 275.9C496.96 266.36 499.85 255.77 501.67 244.81C502.33 254.99 502.01 270.19 494.35 289.84Z" fill="#282422"/>
<path d="M337.8 273.67C337.76 273.81 337.719 273.94 337.689 274.08" stroke="#231F20" stroke-width="0.79" stroke-miterlimit="10"/>
<path d="M367.03 558.7C367.03 558.7 367.01 558.74 366.99 558.76C366.28 559.92 365.43 560.87 364.57 561.51C364.29 561.73 364.02 561.9 363.75 562.05C363.46 562.21 363.14 562.3 362.8 562.32C362.07 562.39 361.23 562.18 360.39 561.83C360.55 563.12 360.53 564.16 360.26 564.86C360 565.53 359.48 566.19 358.77 566.75C357.6 567.69 355.9 568.37 354.02 568.48C352.46 568.57 350.78 568.28 349.14 567.41C344.31 564.86 346.32 560.97 345.52 552.39C344.71 543.81 340.42 538.45 338.01 531.07C336.28 525.8 332.52 521.88 327.48 519.97C325.27 519.53 323.05 519.1 320.84 518.67C319.81 518.47 318.78 518.27 317.75 518.07C318.61 516.35 319.56 514.74 320.57 513.23C327.25 503.25 336.68 497.99 342.3 500.36C349.27 503.31 359.73 506.53 362.14 521.28C362.47 523.31 362.79 525.18 363.08 526.9C364.94 537.73 366.19 543.09 368.04 548.64C369.37 552.61 368.55 556.17 367.03 558.7Z" fill="#5E5853"/>
<path d="M352.89 519.27C353.38 520.46 353.51 522.78 353.59 525.05C353.66 527.13 353.7 529.18 353.96 530.27C354.5 532.55 354.23 538.71 356.38 546.49C357.97 552.27 359.92 558.1 360.39 561.83" stroke="#231F20" stroke-width="0.79" stroke-miterlimit="10"/>
<path d="M359.729 587.66C357.579 592.08 355.97 592.35 355.17 591.28C354.49 590.36 356.9 579.97 354.02 568.48C355.9 568.37 357.6 567.69 358.77 566.75C360.65 572.33 361.549 583.89 359.729 587.66Z" fill="#282422"/>
<path d="M364.17 569.42C362.56 569.34 364.05 566.05 362.8 562.32C362.71 562.05 362.61 561.78 362.49 561.51C364.08 560.86 365.67 559.89 366.99 558.7V558.76C367.45 563.55 366.03 569.52 364.17 569.42Z" fill="#282422"/>
<path d="M325.37 741.94C333 726.98 340.54 700.69 340.54 700.69" stroke="#231F20" stroke-width="0.79" stroke-miterlimit="10"/>
<path d="M424.54 643.45C424.43 642.26 424.28 641.14 424.09 640.09" stroke="#231F20" stroke-width="0.79" stroke-miterlimit="10"/>
<path d="M325.369 741.94C321.469 740.61 317.389 739.03 313.109 737.17" stroke="#231F20" stroke-width="0.79" stroke-miterlimit="10"/>
<path d="M577.49 616.22C576.6 617.91 574.79 619.23 572.65 620.06C570.21 621.01 567.359 621.31 564.979 620.8C563.819 620.55 562.769 620.1 561.939 619.44C557.909 616.22 560.86 608.98 561.4 604.69C561.74 602.01 562.07 596.41 561.43 592.71C564.53 588.21 566.229 582.96 566.229 582.09C566.229 580.68 560.61 574.19 557.78 582.09C557.07 584.08 556.14 585.78 555.16 587.24C552.6 584.68 550.379 580.1 550.819 577.07C551.479 572.5 543.159 566.6 532.699 564.19C524.429 562.28 516.149 558.86 513.719 556.38C513.709 556.38 513.709 556.37 513.709 556.37C513.079 555.73 512.85 555.14 513.13 554.67C514.47 552.39 513.659 548.9 499.719 537.37C491.639 530.69 482.49 522.58 472.04 515.84C466.26 512.1 460.089 508.79 453.479 506.38C459.109 504.11 464.669 501.13 470.349 497.26C474.779 500.08 478.87 502.73 482.65 505.21C513.88 525.72 524.18 534.88 530.29 537.37C537.53 540.32 544.24 544.88 545.04 548.64C545.85 552.39 553.349 552.66 558.449 555.88C561.619 557.88 564.99 562.77 567.67 567.03C569.3 569.62 570.679 571.98 571.589 573.31C573.999 576.8 575.339 586.18 575.079 590.2C574.809 594.23 579.9 611.66 577.49 616.22Z" fill="#5E5853"/>
<path d="M572.65 620.06C572.45 621.94 572 624.42 571.05 627.48C568.63 635.26 557.11 644.11 553.35 644.11C549.59 644.11 546.65 639.82 550.82 640.09C553.92 640.28 561.5 628.81 564.98 620.8C567.36 621.31 570.21 621.01 572.65 620.06Z" fill="#282422"/>
<path d="M566.23 582.09C566.23 582.96 564.53 588.21 561.43 592.71C559.52 595.5 557.07 598 554.16 598.99C546.55 601.58 547.92 597.58 548.79 595.17C549.42 593.41 552.51 591.17 555.16 587.24C556.14 585.78 557.07 584.08 557.78 582.09C560.61 574.19 566.23 580.68 566.23 582.09Z" fill="#282422"/>
<path d="M404.25 729.66C396.27 734.64 376.71 759.55 325.37 741.94C323.19 746.21 321.01 749.56 318.99 751.11C309.89 758.08 259.43 764.52 239.05 751.11C221.18 739.35 234.24 677.67 276.08 614.92C326.13 624.54 377.15 634.35 424.54 643.45C427.01 668.98 412.45 724.53 404.25 729.66Z" fill="#141311"/>
<path d="M660.35 628.44C660.35 660.43 631.05 684.41 599.69 678.07C554.7 668.97 490.05 656.05 424.54 643.46C377.15 634.36 326.13 624.55 276.08 614.93C171.85 594.88 83.4499 577.92 36.6699 568.87C15.9399 564.86 1.00987 546.67 1.10987 525.56C1.27987 489.77 33.9498 462.96 69.0798 469.77C129.79 481.54 223.59 499.74 317.75 518.09C318.78 518.29 319.81 518.49 320.84 518.69C323.05 519.12 325.27 519.55 327.48 519.99C332.52 521.9 336.28 525.82 338.01 531.09C340.42 538.47 344.71 543.83 345.52 552.41C346.32 560.99 344.31 564.88 349.14 567.43C350.78 568.3 352.46 568.59 354.02 568.5C356.9 579.99 354.49 590.38 355.17 591.3C355.97 592.37 357.58 592.1 359.73 587.68C361.55 583.91 360.65 572.35 358.77 566.77C359.48 566.21 360 565.55 360.26 564.88C360.53 564.18 360.55 563.14 360.39 561.85C361.23 562.2 362.07 562.41 362.8 562.34C364.05 566.07 362.56 569.36 364.17 569.44C366.03 569.54 367.45 563.57 366.99 558.78C367.01 558.76 367.02 558.74 367.03 558.72C368.55 556.19 369.37 552.63 368.04 548.66C366.19 543.11 364.94 537.75 363.08 526.92C388.62 531.9 413.79 536.82 437.93 541.54H437.94C464.78 546.79 490.35 551.8 513.71 556.39C513.71 556.39 513.71 556.4 513.72 556.4C516.15 558.88 524.43 562.3 532.7 564.21C543.16 566.62 551.48 572.52 550.82 577.09C550.38 580.12 552.6 584.7 555.16 587.26C552.51 591.19 549.42 593.43 548.79 595.19C547.92 597.6 546.55 601.6 554.16 599.01C557.07 598.02 559.52 595.52 561.43 592.73C562.07 596.43 561.74 602.03 561.4 604.71C560.86 609 557.91 616.24 561.94 619.46C562.77 620.12 563.82 620.57 564.98 620.82C561.5 628.83 553.92 640.3 550.82 640.11C546.65 639.84 549.6 644.13 553.35 644.13C557.1 644.13 568.63 635.28 571.05 627.5C572 624.44 572.45 621.96 572.65 620.08C574.79 619.25 576.6 617.93 577.49 616.24C579.9 611.68 574.81 594.25 575.08 590.22C575.34 586.2 574 576.82 571.59 573.33C570.68 572 569.3 569.64 567.67 567.05C585.2 570.52 601.38 573.11 615.32 575.4C641.3 579.67 660.35 602.13 660.35 628.45V628.44Z" fill="#CC7E44" stroke="#231F20" stroke-width="0.79" stroke-miterlimit="10"/>
<path d="M363.321 331.38C355.151 372.82 333.791 424 317.781 445.91C316.901 443.94 316.071 441.94 315.291 439.89H315.281C312.991 433.94 311.061 427.64 309.551 420.96C320.341 431.75 338.951 389.76 348.991 369.76C358.891 350.04 363.201 331.88 363.321 331.38Z" fill="#141311"/>
<path d="M405.01 51.76C405.01 50.09 403.66 48.74 401.99 48.74C400.32 48.74 398.97 50.09 398.97 51.76C398.97 53.43 400.32 54.78 401.99 54.78C403.66 54.78 405.01 53.43 405.01 51.76Z" fill="white"/>
</svg>
