<svg width="431" height="161" viewBox="0 0 431 161" fill="none" xmlns="http://www.w3.org/2000/svg">
<path d="M185.398 107.576L147.64 71.4235L147.595 71.3808C147.456 71.292 147.32 71.2006 147.186 71.1066H147.159C147.034 71.056 146.9 71.0213 146.763 71.0034C146.713 70.989 146.662 70.9773 146.61 70.9682C146.296 70.9487 145.982 71.0149 145.715 71.1569C145.652 71.1797 145.591 71.2066 145.533 71.2374L132.629 79.9968L103.632 51.7715C103.6 51.7413 103.555 51.7338 103.522 51.7061C103.41 51.6121 103.28 51.5347 103.137 51.4772C103.075 51.4533 103.011 51.4332 102.946 51.4168C102.876 51.3913 102.804 51.3694 102.731 51.3514C102.659 51.3476 102.586 51.3476 102.513 51.3514C102.46 51.3514 102.415 51.3287 102.361 51.3312C102.307 51.3338 102.289 51.3589 102.251 51.3639C102.131 51.3861 102.015 51.4199 101.904 51.4646C101.817 51.4915 101.733 51.5252 101.654 51.5652C101.483 51.6636 101.338 51.7913 101.23 51.94L101.209 51.9576L85.9022 74.4121H77.0147C76.6275 74.4114 76.255 74.5377 75.9762 74.7643L62.5465 85.6796L47.4127 79.1641C47.3859 79.1515 47.359 79.1641 47.3321 79.1515C47.0983 79.0569 46.8385 79.0169 46.5801 79.0358C46.5592 79.0358 46.5383 79.0358 46.5144 79.0509C46.3524 79.0662 46.1948 79.1054 46.0489 79.1666C45.9874 79.201 45.9295 79.2397 45.8758 79.2824C45.8459 79.3 45.8071 79.2975 45.7773 79.3176L5.76279 107.44C5.45885 107.654 5.26813 107.96 5.23259 108.293C5.19705 108.625 5.3196 108.956 5.57328 109.212C5.82696 109.468 6.19098 109.629 6.58528 109.659C6.97957 109.689 7.37183 109.586 7.67577 109.372L46.2578 82.2609L53.2412 93.6617L51.749 106.413C51.7285 106.589 51.7519 106.766 51.8177 106.933C51.8835 107.1 51.9901 107.253 52.1308 107.384C52.2715 107.514 52.443 107.618 52.6343 107.688C52.8255 107.759 53.0323 107.795 53.2412 107.794C53.4504 107.795 53.6574 107.758 53.8487 107.686C54.0399 107.615 54.2112 107.51 54.3514 107.379L77.8981 85.3551L86.4812 99.0476C86.621 99.2494 86.8204 99.4172 87.0599 99.5349C87.2993 99.6526 87.5708 99.7161 87.848 99.7193C88.129 99.7106 88.4014 99.6351 88.6337 99.5016C88.866 99.368 89.0489 99.1819 89.1611 98.9646L98.741 81.0106C98.7967 80.9075 98.8349 80.7982 98.8544 80.6861L103.483 55.4694L130.295 81.5565L113.382 92.8542C113.139 93.0164 112.962 93.2384 112.876 93.4893C112.789 93.7402 112.798 94.0076 112.9 94.2544C113.002 94.5011 113.192 94.7149 113.445 94.8661C113.698 95.0173 114 95.0984 114.31 95.0981C114.647 95.099 114.974 95.0021 115.236 94.8239L133.369 82.7112L141.618 77.1164L132.023 92.0416L104.543 104.117C104.247 104.247 104.012 104.457 103.874 104.714C103.737 104.97 103.706 105.258 103.786 105.532C103.865 105.805 104.051 106.048 104.314 106.221C104.577 106.395 104.901 106.489 105.235 106.489C105.475 106.489 105.712 106.44 105.924 106.345L133.819 94.0843C134.08 93.9717 134.296 93.7967 134.44 93.5812L146.766 74.402L183.175 109.243C183.301 109.376 183.458 109.485 183.636 109.565C183.814 109.645 184.009 109.693 184.21 109.708C184.41 109.722 184.612 109.702 184.804 109.649C184.995 109.596 185.172 109.511 185.323 109.399C185.474 109.287 185.597 109.15 185.684 108.997C185.77 108.843 185.819 108.677 185.828 108.507C185.836 108.338 185.804 108.168 185.733 108.009C185.661 107.851 185.553 107.706 185.413 107.583L185.398 107.576ZM95.9297 80.1377L87.6839 95.5937L79.5306 82.5854C79.4181 82.4063 79.256 82.2529 79.0581 82.138C78.8602 82.0231 78.6323 81.9502 78.3938 81.9255C78.1552 81.9008 77.9132 81.925 77.6882 81.9961C77.4631 82.0672 77.2618 82.1831 77.1013 82.3338L55.1661 102.851L56.2584 93.5434C56.2911 93.2971 56.2382 93.048 56.1062 92.8265L50.1971 83.1816L62.1346 88.3235C62.4114 88.4431 62.7256 88.4867 63.0333 88.4484C63.341 88.41 63.6267 88.2916 63.8507 88.1097L77.6146 76.9252H86.7647C87.0274 76.9254 87.2855 76.8671 87.513 76.7562C87.7404 76.6454 87.9291 76.4858 88.0599 76.2938L99.8005 59.0794L95.9297 80.1377Z" fill="white"/>
<path d="M17.2482 57.313C17.0468 56.3654 18.1758 55.7136 18.8957 56.3618L21.3405 58.5632C22.3062 59.4326 23.7216 59.5811 24.847 58.9316L27.6963 57.2866C28.4829 56.8324 29.3835 57.5711 29.1681 58.3944L29.1102 58.5597L27.7724 61.5649C27.2768 62.678 27.506 63.9715 28.3324 64.8454L28.5058 65.0149L30.9502 67.2154C31.6701 67.8636 31.1398 69.0546 30.1764 68.9533L26.905 68.6093C25.6124 68.4735 24.3788 69.1857 23.8502 70.373L22.5124 73.3781C22.143 74.2078 20.981 74.1399 20.6712 73.3473L20.6204 73.1793L19.9369 69.9621C19.6836 68.7705 18.738 67.8584 17.5559 67.637L17.3158 67.602L14.0444 67.258C13.081 67.1567 12.8098 65.8813 13.6487 65.3969L16.498 63.7519C17.6232 63.102 18.2023 61.802 17.9322 60.531L17.2482 57.313Z" stroke="white" stroke-width="2"/>
<path d="M150.741 53.1447C149.978 52.5483 150.424 51.3233 151.392 51.3571L152.864 51.4088C154.163 51.4541 155.344 50.6577 155.789 49.4364L156.292 48.0526C156.624 47.1423 157.926 47.1875 158.193 48.1187L158.599 49.5345C158.935 50.7058 159.942 51.5494 161.137 51.6876L161.378 51.7056L162.85 51.7573C163.758 51.789 164.131 52.8918 163.512 53.476L163.375 53.586L162.153 54.4093C161.143 55.0907 160.652 56.3099 160.89 57.4891L160.947 57.7239L161.353 59.1397C161.62 60.0709 160.54 60.7999 159.776 60.2035L158.615 59.2966C157.655 58.5466 156.344 58.4555 155.297 59.0459L155.091 59.1737L153.87 59.997C153.066 60.5387 152.04 59.7363 152.371 58.826L152.875 57.4422C153.292 56.2971 152.972 55.0222 152.087 54.208L151.903 54.0516L150.741 53.1447Z" stroke="white" stroke-width="2"/>
<path d="M78.023 23.7478C78.2273 22.863 79.3815 22.7077 79.8369 23.4264L79.9181 23.582L81.9135 28.2825C82.4214 29.4785 83.6413 30.2114 84.9358 30.0982L90.0228 29.6532C90.9877 29.5689 91.4971 30.7691 90.7662 31.4046L86.9126 34.7542C85.9317 35.6069 85.6114 36.9946 86.1192 38.1909L88.1136 42.8905C88.4921 43.7821 87.5091 44.6373 86.6788 44.1384L82.3021 41.5089C81.1881 40.8395 79.7691 40.9637 78.7882 41.8163L74.9346 45.1659C74.2035 45.8014 73.087 45.1299 73.3049 44.186L74.4529 39.2116C74.7452 37.9452 74.1889 36.6342 73.0748 35.9649L68.6981 33.3353C67.8679 32.8364 68.1612 31.566 69.1261 31.4814L74.2131 31.0363C75.5076 30.923 76.5817 29.9895 76.8741 28.7234L78.023 23.7478Z" stroke="white" stroke-width="2"/>
<path d="M201.45 17.3C202.75 16.9 204.133 16.6167 205.6 16.45C207.1 16.2833 208.683 16.2667 210.35 16.4C213.65 16.6 216.267 17.4667 218.2 19C220.167 20.6 221.367 22.5833 221.8 24.95C222.2 27.3833 221.95 29.7 221.05 31.9C220.017 34.1333 218.85 35.7667 217.55 36.8C216.817 37.3333 216.117 37.7667 215.45 38.1C214.817 38.4333 214.183 38.6667 213.55 38.8C214.117 40.3 214.667 41.6167 215.2 42.75C215.733 43.8833 216.267 44.8333 216.8 45.6C217.333 46.3333 217.917 47 218.55 47.6C219.183 48.1667 219.867 48.6667 220.6 49.1C221.1 49.8333 221.25 50.4333 221.05 50.9C220.783 51.4 220.15 51.5 219.15 51.2C218.45 50.5333 217.767 49.85 217.1 49.15C216.433 48.45 215.8 47.7167 215.2 46.95C214.567 46.1833 213.917 45.1333 213.25 43.8C212.583 42.4333 211.867 40.8 211.1 38.9C210.267 39.0333 209.183 39.1 207.85 39.1C206.517 39.1 204.917 39.0667 203.05 39L203.15 50.45C203.15 51.4833 202.833 52 202.2 52C201.533 52.0667 201.15 51.6 201.05 50.6L200.55 19.65C200.483 18.45 200.783 17.6667 201.45 17.3ZM202.95 36.75C205.517 36.9167 208.017 36.9167 210.45 36.75C211.65 36.6833 212.7 36.5167 213.6 36.25C214.533 35.9833 215.317 35.6333 215.95 35.2C216.617 34.7333 217.2 34.1667 217.7 33.5C218.2 32.8 218.633 32 219 31.1C219.733 29.3667 219.917 27.5167 219.55 25.55C219.15 23.6833 218.217 22.0667 216.75 20.7C215.217 19.3667 213.067 18.65 210.3 18.55C208.9 18.4833 207.567 18.5167 206.3 18.65C205.033 18.7833 203.817 19.0333 202.65 19.4L202.95 36.75ZM227.65 42.65C227.817 43.75 228.067 44.7333 228.4 45.6C228.767 46.4333 229.233 47.15 229.8 47.75C230.333 48.3167 231.017 48.8167 231.85 49.25C232.683 49.6833 233.667 50.0333 234.8 50.3C237.1 50.8333 239.567 50.6833 242.2 49.85C243.1 49.65 243.617 49.8333 243.75 50.4C243.883 51.0333 243.517 51.55 242.65 51.95C240.05 52.85 237.5 53.1 235 52.7C232.433 52.3333 230.317 51.3167 228.65 49.65C226.95 47.95 226 45.6167 225.8 42.65C225.667 41.15 225.667 39.8167 225.8 38.65C225.967 37.45 226.217 36.4 226.55 35.5C226.917 34.6333 227.333 33.8667 227.8 33.2C228.267 32.5333 228.8 31.95 229.4 31.45C230.567 30.4833 231.867 29.8 233.3 29.4C234 29.2333 234.7 29.1333 235.4 29.1C236.133 29.0667 236.817 29.0833 237.45 29.15C238.817 29.35 240.05 29.8167 241.15 30.55C241.75 30.8833 242.283 31.2833 242.75 31.75C243.217 32.1833 243.617 32.6667 243.95 33.2C244.55 34.3 245.033 35.6 245.4 37.1C245.7 38.6 245.75 39.8667 245.55 40.9C245.35 41.9333 244.867 42.5 244.1 42.6L227.65 42.65ZM243.4 40.6C243.733 38.1333 243.3 36.0333 242.1 34.3C240.767 32.5667 239.283 31.5833 237.65 31.35C235.917 31.0833 234.35 31.2 232.95 31.7C232.25 31.9667 231.583 32.3667 230.95 32.9C230.35 33.4 229.817 34.05 229.35 34.85C228.35 36.4167 227.883 38.3167 227.95 40.55L243.4 40.6ZM266.3 50.6C266.167 51.8 265.8 52.4333 265.2 52.5C264.567 52.6 264.15 52.2333 263.95 51.4L260.45 35.4L256.7 50.95C256.567 51.8833 256.2 52.4167 255.6 52.55C255.067 52.6833 254.617 52.3 254.25 51.4L249.75 31.6C249.617 30.6 249.867 30.0333 250.5 29.9C251.067 29.8 251.55 30.1 251.95 30.8L255.45 46.45L259.2 31.25C259.4 30.55 259.767 30.15 260.3 30.05C260.867 29.9833 261.35 30.45 261.75 31.45L265.25 46.2L269.2 30.9C269.5 30.2 269.95 29.9 270.55 30C271.15 30.1333 271.45 30.7 271.45 31.7L266.3 50.6ZM275.5 30C276.433 28.6 277.733 27.6167 279.4 27.05C281 26.6167 282.667 26.5667 284.4 26.9C286.033 27.2333 287.433 28.0167 288.6 29.25C289.167 29.8833 289.633 30.5667 290 31.3C290.4 32 290.667 32.7667 290.8 33.6C290.967 34.4333 291.033 35.3833 291 36.45C290.967 37.4833 290.85 38.65 290.65 39.95C290.417 41.25 290.183 42.4 289.95 43.4C289.75 44.4 289.567 45.25 289.4 45.95C289.933 47.3167 290.667 48.2667 291.6 48.8C292.5 49.3333 293.467 49.5833 294.5 49.55C295.467 49.5167 295.933 49.8833 295.9 50.65C295.867 51.4833 295.2 51.9 293.9 51.9C292.667 51.9 291.533 51.5167 290.5 50.75C289.4 49.95 288.683 49.25 288.35 48.65C287.583 50.1833 286.517 51.2167 285.15 51.75C283.683 52.3167 282.1 52.4833 280.4 52.25C279.567 52.1167 278.8 51.8833 278.1 51.55C277.433 51.2167 276.867 50.7333 276.4 50.1C275.433 48.9333 274.95 47.25 274.95 45.05C274.917 42.9167 275.583 41.0333 276.95 39.4C278.283 37.8 279.95 37.0833 281.95 37.25C283.883 37.35 285.317 37.85 286.25 38.75C287.15 39.5833 287.75 40.7667 288.05 42.3C288.65 38.2 288.817 35.5167 288.55 34.25C288.25 33.0167 287.683 31.9333 286.85 31C286.05 30.0333 285.033 29.4 283.8 29.1C282.533 28.8333 281.3 28.8833 280.1 29.25C278.867 29.6167 277.867 30.3667 277.1 31.5C276.3 32 275.733 32.0833 275.4 31.75C275.033 31.3833 275.067 30.8 275.5 30ZM286.4 43.2C285.767 41.9 285.183 40.9833 284.65 40.45C284.183 39.95 283.283 39.6167 281.95 39.45C280.617 39.35 279.617 39.6167 278.95 40.25C278.583 40.5833 278.283 40.9333 278.05 41.3C277.85 41.6333 277.683 41.9833 277.55 42.35C277.417 42.75 277.317 43.2 277.25 43.7C277.217 44.1667 277.183 44.7 277.15 45.3C277.117 46.4333 277.45 47.4667 278.15 48.4C278.783 49.3333 279.7 49.8833 280.9 50.05C282.067 50.2167 283.117 50.1 284.05 49.7C284.983 49.2333 285.7 48.4833 286.2 47.45C286.633 46.3833 286.7 44.9667 286.4 43.2ZM305.65 38.75C308.05 33.5833 312.2 31.0833 318.1 31.25C318.9 31.2833 319.317 31.6167 319.35 32.25C319.35 32.85 318.933 33.2167 318.1 33.35C312.467 33.5167 308.6 36.2167 306.5 41.45C306.233 42.1833 306.017 43.3667 305.85 45C305.683 46.6 305.583 48.6333 305.55 51.1C305.55 52.1333 305.25 52.6667 304.65 52.7C303.983 52.7667 303.55 52.3333 303.35 51.4L303.15 30.45C303.05 29.2833 303.333 28.6333 304 28.5C304.7 28.3333 305.183 28.8167 305.45 29.95L305.65 38.75ZM345.1 18.5C345.233 26.3667 345.267 32.5167 345.2 36.95C345.167 41.3833 345.067 44.0833 344.9 45.05C344.767 46.0167 344.517 46.9 344.15 47.7C343.783 48.5 343.333 49.2333 342.8 49.9C342.3 50.5667 341.717 51.1167 341.05 51.55C340.383 51.95 339.617 52.2667 338.75 52.5C337.083 52.9667 335.3 53.0167 333.4 52.65C331.4 52.35 329.783 51.55 328.55 50.25C327.917 49.5833 327.383 48.85 326.95 48.05C326.517 47.25 326.2 46.35 326 45.35C325.5 43.3833 325.55 41.1 326.15 38.5C326.683 35.9667 328.1 34.0333 330.4 32.7C332.6 31.4333 334.9 31 337.3 31.4C339.6 31.8333 341.483 32.7833 342.95 34.25V18.4C342.95 17.2333 343.317 16.6333 344.05 16.6C344.75 16.5667 345.1 17.2 345.1 18.5ZM343.05 42.3C343.217 40.4 342.85 38.6833 341.95 37.15C341.017 35.55 339.483 34.5333 337.35 34.1C335.183 33.6333 333.25 33.8833 331.55 34.85C329.817 35.7833 328.7 37.4333 328.2 39.8C327.633 42.2333 327.9 44.45 329 46.45C330.167 48.5167 331.533 49.75 333.1 50.15C334.633 50.5833 336.267 50.5667 338 50.1C339.567 49.7 340.783 48.8333 341.65 47.5C342.083 46.8333 342.4 46.0833 342.6 45.25C342.833 44.3833 342.983 43.4 343.05 42.3ZM220.75 76.9C221.617 76.9333 222.033 77.3 222 78C221.933 78.7333 221.517 79.1667 220.75 79.3L201.9 79.25L202.15 93.15L218.4 93.1C219.233 93.2 219.65 93.5833 219.65 94.25C219.65 94.9167 219.233 95.3 218.4 95.4L202.1 95.5L201.95 109.4L219.05 109.5C219.817 109.7 220.2 110.083 220.2 110.65C220.2 111.283 219.783 111.7 218.95 111.9C213.25 111.867 208.9 111.85 205.9 111.85C202.9 111.85 201.25 111.833 200.95 111.8C200.25 111.8 199.883 111.383 199.85 110.55C199.883 110.017 199.917 108.967 199.95 107.4C199.983 105.833 200.017 103.783 200.05 101.25C200.083 96.1167 200.033 88.8167 199.9 79.35C199.733 78.0167 200 77.2167 200.7 76.95L220.75 76.9ZM226.9 90.45C226.567 89.6167 226.633 89.0167 227.1 88.65C227.567 88.35 228.067 88.5 228.6 89.1L235.2 98.5L242.2 88.9C242.633 88.2667 243.133 88.1167 243.7 88.45C244.3 88.8167 244.333 89.4333 243.8 90.3L236.7 100.2L243.95 110.75C244.383 111.75 244.3 112.383 243.7 112.65C243.133 112.883 242.65 112.667 242.25 112L235.2 102.2L228.7 112.25C228.133 112.917 227.633 113.083 227.2 112.75C226.733 112.383 226.667 111.8 227 111L233.7 100.2L226.9 90.45ZM252.15 98.45C252.517 95.6167 253.5 93.4167 255.1 91.85C256.7 90.25 258.733 89.4333 261.2 89.4C263.633 89.4 265.583 90.0333 267.05 91.3C268.517 92.6667 269.467 94.2167 269.9 95.95C270.3 97.75 270.35 99.7 270.05 101.8C269.75 103.867 268.733 105.717 267 107.35C265.2 108.917 263.05 109.583 260.55 109.35C258.017 109.117 255.95 107.9 254.35 105.7C254.417 108.267 254.5 110.583 254.6 112.65C254.7 114.717 254.833 116.55 255 118.15C255 119.083 254.7 119.583 254.1 119.65C253.567 119.683 253.167 119.267 252.9 118.4C252.8 117.167 252.717 115.983 252.65 114.85C252.583 113.75 252.533 112.683 252.5 111.65C252.467 110.617 252.417 109.6 252.35 108.6C252.283 107.567 252.217 106.55 252.15 105.55C251.983 103.55 251.983 101.183 252.15 98.45ZM257.65 92.65C255.75 94.2167 254.667 96.2 254.4 98.6C254.167 100.933 254.667 102.933 255.9 104.6C257.2 106.267 258.817 107.167 260.75 107.3C262.717 107.5 264.35 106.967 265.65 105.7C266.95 104.433 267.7 102.683 267.9 100.45C268.167 98.15 267.8 96.1667 266.8 94.5C265.733 92.7667 264.2 91.8 262.2 91.6C260.2 91.4667 258.683 91.8167 257.65 92.65ZM285 111.35C284.8 112.383 284.383 112.9 283.75 112.9C283.05 112.9 282.617 112.383 282.45 111.35L282.4 78.55C282.467 77.25 282.867 76.65 283.6 76.75C284.367 76.85 284.817 77.45 284.95 78.55L285 111.35ZM311.6 89.05C313.533 88.9833 315.267 89.5833 316.8 90.85C318.4 92.0833 319.55 93.8833 320.25 96.25C320.983 98.5833 321.05 101.117 320.45 103.85C319.85 106.65 318.55 108.9 316.55 110.6C314.517 112.333 312.2 113.05 309.6 112.75C306.9 112.45 304.783 111.5 303.25 109.9C301.75 108.4 300.767 106.35 300.3 103.75C299.833 101.283 300.033 98.75 300.9 96.15C301.7 93.5833 303.05 91.7 304.95 90.5C306.817 89.2667 309.033 88.7833 311.6 89.05ZM312.25 91C309.65 90.8333 307.6 91.2667 306.1 92.3C304.5 93.3333 303.4 94.9 302.8 97C302.1 99.1333 301.917 101.217 302.25 103.25C302.417 104.283 302.683 105.217 303.05 106.05C303.417 106.883 303.917 107.633 304.55 108.3C305.717 109.6 307.4 110.35 309.6 110.55C311.733 110.75 313.683 110.133 315.45 108.7C317.117 107.3 318.167 105.467 318.6 103.2C319.033 100.933 318.933 98.8 318.3 96.8C317.667 94.8 316.8 93.4167 315.7 92.65C315.2 92.2833 314.667 91.95 314.1 91.65C313.533 91.35 312.917 91.1333 312.25 91ZM330.65 98.75C333.05 93.5833 337.2 91.0833 343.1 91.25C343.9 91.2833 344.317 91.6167 344.35 92.25C344.35 92.85 343.933 93.2167 343.1 93.35C337.467 93.5167 333.6 96.2167 331.5 101.45C331.233 102.183 331.017 103.367 330.85 105C330.683 106.6 330.583 108.633 330.55 111.1C330.55 112.133 330.25 112.667 329.65 112.7C328.983 112.767 328.55 112.333 328.35 111.4L328.15 90.45C328.05 89.2833 328.333 88.6333 329 88.5C329.7 88.3333 330.183 88.8167 330.45 89.95L330.65 98.75ZM352.65 102.65C352.817 103.75 353.067 104.733 353.4 105.6C353.767 106.433 354.233 107.15 354.8 107.75C355.333 108.317 356.017 108.817 356.85 109.25C357.683 109.683 358.667 110.033 359.8 110.3C362.1 110.833 364.567 110.683 367.2 109.85C368.1 109.65 368.617 109.833 368.75 110.4C368.883 111.033 368.517 111.55 367.65 111.95C365.05 112.85 362.5 113.1 360 112.7C357.433 112.333 355.317 111.317 353.65 109.65C351.95 107.95 351 105.617 350.8 102.65C350.667 101.15 350.667 99.8167 350.8 98.65C350.967 97.45 351.217 96.4 351.55 95.5C351.917 94.6333 352.333 93.8667 352.8 93.2C353.267 92.5333 353.8 91.95 354.4 91.45C355.567 90.4833 356.867 89.8 358.3 89.4C359 89.2333 359.7 89.1333 360.4 89.1C361.133 89.0667 361.817 89.0833 362.45 89.15C363.817 89.35 365.05 89.8167 366.15 90.55C366.75 90.8833 367.283 91.2833 367.75 91.75C368.217 92.1833 368.617 92.6667 368.95 93.2C369.55 94.3 370.033 95.6 370.4 97.1C370.7 98.6 370.75 99.8667 370.55 100.9C370.35 101.933 369.867 102.5 369.1 102.6L352.65 102.65ZM368.4 100.6C368.733 98.1333 368.3 96.0333 367.1 94.3C365.767 92.5667 364.283 91.5833 362.65 91.35C360.917 91.0833 359.35 91.2 357.95 91.7C357.25 91.9667 356.583 92.3667 355.95 92.9C355.35 93.4 354.817 94.05 354.35 94.85C353.35 96.4167 352.883 98.3167 352.95 100.55L368.4 100.6ZM380.65 98.75C383.05 93.5833 387.2 91.0833 393.1 91.25C393.9 91.2833 394.317 91.6167 394.35 92.25C394.35 92.85 393.933 93.2167 393.1 93.35C387.467 93.5167 383.6 96.2167 381.5 101.45C381.233 102.183 381.017 103.367 380.85 105C380.683 106.6 380.583 108.633 380.55 111.1C380.55 112.133 380.25 112.667 379.65 112.7C378.983 112.767 378.55 112.333 378.35 111.4L378.15 90.45C378.05 89.2833 378.333 88.6333 379 88.5C379.7 88.3333 380.183 88.8167 380.45 89.95L380.65 98.75ZM417.5 94.3C416.733 92.9667 415.633 92.0333 414.2 91.5C412.7 91 411.2 90.8167 409.7 90.95C408.1 91.1167 406.9 91.6167 406.1 92.45C405.267 93.3833 404.85 94.4167 404.85 95.55C404.817 96.75 405.467 97.8167 406.8 98.75C407.467 99.1833 408.133 99.5667 408.8 99.9C409.467 100.2 410.133 100.417 410.8 100.55C412.1 100.783 413.55 101.35 415.15 102.25C416.717 103.217 417.733 104.383 418.2 105.75C418.7 107.183 418.55 108.6 417.75 110C416.917 111.433 415.617 112.35 413.85 112.75C412.083 113.183 410.267 113.25 408.4 112.95C406.6 112.717 405.1 112.1 403.9 111.1C402.7 110.067 401.933 108.667 401.6 106.9C401.367 105.9 401.633 105.35 402.4 105.25C403.133 105.15 403.6 105.467 403.8 106.2C403.933 107.467 404.433 108.533 405.3 109.4C406.067 110.2 407.267 110.733 408.9 111C410.467 111.233 411.95 111.133 413.35 110.7C414.717 110.233 415.55 109.283 415.85 107.85C416.15 106.45 415.683 105.3 414.45 104.4C413.817 104 413.083 103.633 412.25 103.3C411.45 102.933 410.517 102.617 409.45 102.35C408.417 102.083 407.483 101.767 406.65 101.4C405.85 101 405.133 100.517 404.5 99.95C403.2 98.8833 402.55 97.4667 402.55 95.7C402.517 94 403.15 92.4667 404.45 91.1C405.717 89.8333 407.333 89.1 409.3 88.9C410.267 88.8 411.167 88.7833 412 88.85C412.833 88.9167 413.617 89.05 414.35 89.25C415.75 89.6833 417.117 90.55 418.45 91.85C419.317 92.7833 419.667 93.5 419.5 94C419.3 94.5667 418.633 94.6667 417.5 94.3Z" fill="white"/>
</svg>
